<?xml version="1.0" standalone="no"?>
<!DOCTYPE svg PUBLIC "-//W3C//DTD SVG 20010904//EN"
 "http://www.w3.org/TR/2001/REC-SVG-20010904/DTD/svg10.dtd">
<svg version="1.0" xmlns="http://www.w3.org/2000/svg"
 width="256.000000pt" height="256.000000pt" viewBox="0 0 256.000000 256.000000"
 preserveAspectRatio="xMidYMid meet">
<metadata>
Created by potrace 1.15, written by Peter Selinger 2001-2017
</metadata>
<g transform="translate(0.000000,256.000000) scale(0.100000,-0.100000)"
fill="#000000" stroke="none">
<path d="M1222 2180 c-29 -12 -57 -70 -48 -103 3 -13 14 -35 25 -48 17 -21 29
-24 137 -30 142 -8 214 -31 324 -104 151 -100 279 -259 331 -409 24 -66 29
-98 29 -174 0 -107 8 -128 57 -148 47 -20 97 -4 119 39 27 51 15 240 -21 342
-103 294 -376 552 -660 625 -83 21 -250 27 -293 10z"/>
<path d="M697 2020 c-62 -19 -201 -154 -217 -211 -34 -118 27 -330 151 -531
274 -443 786 -819 1119 -822 94 0 115 11 207 108 69 72 93 117 93 171 -1 63
-88 164 -195 226 -115 66 -174 60 -272 -27 -66 -59 -89 -64 -149 -39 -78 32
-231 163 -370 316 -92 100 -145 176 -163 232 -11 33 -10 41 8 70 11 17 34 46
51 62 44 41 60 76 60 128 0 118 -178 329 -275 326 -11 0 -33 -5 -48 -9z"/>
<path d="M1285 1835 c-24 -23 -30 -45 -25 -90 3 -34 43 -64 104 -80 159 -42
279 -162 321 -320 20 -77 46 -105 100 -105 47 0 81 25 91 66 20 80 -64 271
-165 373 -139 141 -361 222 -426 156z"/>
</g>
</svg>
