<?xml version="1.0" encoding="utf-8"?>
<!-- Generator: Adobe Illustrator 19.2.1, SVG Export Plug-In . SVG Version: 6.00 Build 0)  -->
<svg version="1.1" id="Capa_1" xmlns="http://www.w3.org/2000/svg" xmlns:xlink="http://www.w3.org/1999/xlink" x="0px" y="0px"
	 viewBox="0 0 112.2 112.2" style="enable-background:new 0 0 112.2 112.2;" xml:space="preserve">
<style type="text/css">
	.st0{fill:#135586;}
	.st1{fill:#FFFFFF;}
</style>
<g>
	<circle class="st0" cx="56.1" cy="56.1" r="56.1"/>
</g>
<g>
	<g>
		<path class="st1" d="M70.2,20h-32c-10.9,0-19.7,8.8-19.7,19.7v32c0,10.9,8.8,19.7,19.7,19.7h32c10.9,0,19.7-8.8,19.7-19.7v-32
			C89.9,28.8,81.1,20,70.2,20L70.2,20z M83.6,71.7c0,7.4-6,13.4-13.4,13.4h-32c-7.4,0-13.4-6-13.4-13.4v-32c0-7.4,6-13.4,13.4-13.4
			h32c7.4,0,13.4,6,13.4,13.4V71.7z"/>
		<path class="st1" d="M54.2,37.3c-10.1,0-18.4,8.2-18.4,18.4c0,10.1,8.2,18.4,18.4,18.4c10.1,0,18.4-8.2,18.4-18.4
			C72.6,45.5,64.4,37.3,54.2,37.3L54.2,37.3z M54.2,67.7c-6.6,0-12.1-5.4-12.1-12.1c0-6.6,5.4-12.1,12.1-12.1S66.3,49,66.3,55.7
			C66.3,62.3,60.9,67.7,54.2,67.7L54.2,67.7z"/>
		<path class="st1" d="M73.4,31.9c-1.2,0-2.4,0.5-3.3,1.4c-0.9,0.9-1.4,2.1-1.4,3.3s0.5,2.4,1.4,3.3c0.9,0.9,2.1,1.4,3.3,1.4
			c1.2,0,2.4-0.5,3.3-1.4s1.4-2.1,1.4-3.3s-0.5-2.4-1.4-3.3S74.6,31.9,73.4,31.9L73.4,31.9z"/>
	</g>
</g>
</svg>
